<svg width="412" height="423" viewBox="0 0 412 423" fill="none" xmlns="http://www.w3.org/2000/svg">
<path d="M337.406 116.635C337.406 116.635 329.684 121.09 332.06 127.327C332.06 127.327 340.08 129.703 343.347 135.644C346.614 141.584 371.861 162.969 371.861 162.969L390.277 153.761C390.277 153.761 383.871 145.21 363.609 139.239C363.609 139.239 351.664 126.436 347.505 124.06C343.347 121.684 337.406 116.635 337.406 116.635Z" fill="#CBCDDA"/>
<path opacity="0.05" d="M337.406 116.635C337.406 116.635 329.684 121.09 332.06 127.327C332.06 127.327 340.08 129.703 343.347 135.644C346.614 141.584 371.861 162.969 371.861 162.969L390.277 153.761C390.277 153.761 383.871 145.21 363.609 139.239C363.609 139.239 351.664 126.436 347.505 124.06C343.347 121.684 337.406 116.635 337.406 116.635Z" fill="black"/>
<path opacity="0.1" d="M70.4083 400.953C66.443 401.933 62.2951 400.789 58.2109 400.741C54.1267 400.692 49.3618 402.409 48.3608 406.369C47.0163 411.687 53.2339 415.697 58.5575 417.022C79.2199 422.164 101.093 415.49 122.211 418.212C131.11 419.359 139.764 422.167 148.712 422.836C169.192 424.368 189.203 414.629 209.711 415.726C219.985 416.276 229.972 419.539 240.248 420.063C264.834 421.315 289.09 406.882 313.159 412.054C319.955 413.514 326.336 416.491 333.07 418.216C350.095 422.575 368.018 418.689 385.157 414.802C388.561 414.03 392.663 412.528 393.083 409.064C393.546 405.241 389.156 402.844 385.504 401.622C345.571 388.268 302.817 381.193 261.165 387.366C251.686 388.77 242.235 390.858 232.654 390.72C211.447 390.414 191.961 379.353 171.142 375.306C131.693 367.64 92.2508 385.527 56.0365 402.947" fill="#80E4AA"/>
<path d="M125.084 287.628H113.007V389.725C113.007 389.725 190.956 414.975 266.708 389.725V287.628H125.084Z" fill="#3F3D56"/>
<path d="M188.76 299.704C230.597 299.704 264.512 294.543 264.512 288.177C264.512 281.811 230.597 276.65 188.76 276.65C146.923 276.65 113.007 281.811 113.007 288.177C113.007 294.543 146.923 299.704 188.76 299.704Z" fill="#3F3D56"/>
<path opacity="0.1" d="M188.76 299.704C230.597 299.704 264.512 294.543 264.512 288.177C264.512 281.811 230.597 276.65 188.76 276.65C146.923 276.65 113.007 281.811 113.007 288.177C113.007 294.543 146.923 299.704 188.76 299.704Z" fill="black"/>
<path d="M276.818 165.645C257.708 236.284 192.252 280.032 192.252 280.032C192.252 280.032 157.78 209.253 176.89 138.614C195.999 67.9755 261.455 24.2271 261.455 24.2271C261.455 24.2271 295.928 95.0067 276.818 165.645Z" fill="#3F3D56"/>
<path d="M102.971 165.645C122.081 236.284 187.536 280.032 187.536 280.032C187.536 280.032 222.009 209.253 202.899 138.614C183.789 67.9755 118.333 24.2271 118.333 24.2271C118.333 24.2271 83.8609 95.0067 102.971 165.645Z" fill="#80E4AA"/>
<path d="M131.051 150.464C183.489 201.508 189.894 279.975 189.894 279.975C189.894 279.975 111.281 275.683 58.8427 224.639C6.4049 173.595 0 95.1283 0 95.1283C0 95.1283 78.6136 99.4205 131.051 150.464Z" fill="#3F3D56"/>
<path d="M248.737 150.464C196.299 201.508 189.894 279.975 189.894 279.975C189.894 279.975 268.508 275.683 320.945 224.639C373.383 173.595 379.788 95.1283 379.788 95.1283C379.788 95.1283 301.175 99.4205 248.737 150.464Z" fill="#3F3D56"/>
<path d="M189.858 48.304C203.197 48.304 214.011 37.4908 214.011 24.152C214.011 10.8132 203.197 0 189.858 0C176.518 0 165.705 10.8132 165.705 24.152C165.705 37.4908 176.518 48.304 189.858 48.304Z" fill="#80E4AA"/>
<path d="M45.2235 195.192C46.9361 201.406 52.8861 205.186 52.8861 205.186C52.8861 205.186 56.0594 198.891 54.3468 192.677C52.6343 186.463 46.6843 182.683 46.6843 182.683C46.6843 182.683 43.5109 188.977 45.2235 195.192Z" fill="#80E4AA"/>
<path d="M77.2788 229.799C75.4354 235.976 78.4751 242.336 78.4751 242.336C78.4751 242.336 84.5035 238.682 86.3469 232.505C88.1903 226.329 85.1506 219.969 85.1506 219.969C85.1506 219.969 79.1221 223.622 77.2788 229.799Z" fill="#80E4AA"/>
<path d="M308.491 269.532C303.966 274.123 303.669 281.166 303.669 281.166C303.669 281.166 310.707 280.765 315.231 276.174C319.756 271.583 320.053 264.54 320.053 264.54C320.053 264.54 313.015 264.941 308.491 269.532Z" fill="#80E4AA"/>
<path d="M385.524 369.987C385.524 369.987 386.415 383.056 387.901 384.541C389.386 386.026 374.534 386.917 374.534 386.917L376.614 369.987H385.524Z" fill="#FFB9B9"/>
<path opacity="0.05" d="M385.524 369.987C385.524 369.987 386.415 383.056 387.901 384.541C389.386 386.026 374.534 386.917 374.534 386.917L376.614 369.987H385.524Z" fill="black"/>
<path d="M388.792 380.085C388.792 380.085 386.713 380.085 379.287 383.947C379.287 383.947 374.238 383.056 372.158 375.927C372.158 375.927 365.921 386.62 361.763 387.214C357.604 387.808 349.585 388.402 354.931 395.53C360.277 402.659 391.762 399.391 391.762 399.391C391.762 399.391 392.653 382.165 388.792 380.085Z" fill="#CBCDDA"/>
<path opacity="0.05" d="M388.792 380.085C388.792 380.085 386.713 380.085 379.287 383.947C379.287 383.947 374.238 383.056 372.158 375.927C372.158 375.927 365.921 386.62 361.763 387.214C357.604 387.808 349.585 388.402 354.931 395.53C360.277 402.659 391.762 399.391 391.762 399.391C391.762 399.391 392.653 382.165 388.792 380.085Z" fill="black"/>
<path d="M384.336 390.184L382.257 395.827L368.594 391.966L369.372 386.364L369.559 385.013L370.079 381.273C370.079 381.273 381.663 378.303 381.663 379.788C381.819 381.013 382.074 382.222 382.424 383.406C382.899 385.233 383.496 387.315 383.897 388.684C384.158 389.59 384.336 390.184 384.336 390.184Z" fill="#FFB9B9"/>
<path d="M376.881 312.723C375.945 314.306 374.885 317.276 376.854 320.989C377.437 322.062 378.155 323.058 378.99 323.95C385.524 331.078 387.306 347.117 387.306 347.117V372.957L382.851 373.299L375.722 373.848L365.03 329.89C365.03 329.89 358.792 297.813 361.762 292.17C364.733 286.526 367.406 251.182 367.406 251.182L369.871 248.628L375.723 242.568H392.653C394.007 243.54 395.132 244.797 395.947 246.251C398.789 250.956 401.341 260.74 393.544 278.804C381.366 307.02 377.802 311.475 377.802 311.475C377.449 311.855 377.14 312.274 376.881 312.723V312.723Z" fill="#4C4C78"/>
<path opacity="0.05" d="M376.881 312.723C375.945 314.306 374.885 317.276 376.854 320.989C377.437 322.062 378.155 323.058 378.99 323.95C385.524 331.078 387.306 347.117 387.306 347.117V372.957L382.851 373.299L375.722 373.848L365.03 329.89C365.03 329.89 358.792 297.813 361.762 292.17C364.733 286.526 367.406 251.182 367.406 251.182L369.871 248.628L375.723 242.568H392.653C394.007 243.54 395.132 244.797 395.947 246.251C398.789 250.956 401.341 260.74 393.544 278.804C381.366 307.02 377.802 311.475 377.802 311.475C377.449 311.855 377.14 312.274 376.881 312.723V312.723Z" fill="black"/>
<path opacity="0.1" d="M382.424 383.406L369.56 385.013L370.079 381.274C370.079 381.274 381.663 378.303 381.663 379.788C381.82 381.013 382.074 382.222 382.424 383.406Z" fill="black"/>
<path d="M376.02 274.646C376.02 274.646 376.759 298.027 376.881 312.723C376.908 316.047 376.905 318.928 376.854 320.989C376.871 322.08 376.791 323.17 376.614 324.247C375.723 326.92 377.505 332.86 377.505 332.86C384.93 352.463 382.851 369.69 382.851 369.69V382.759L368.594 384.541C368.594 384.541 370.97 382.759 364.436 365.532C360.681 355.635 359.867 345.938 359.855 339.475C359.821 335.937 359.113 332.439 357.77 329.166C357.359 328.062 357.103 326.906 357.01 325.732C356.416 319.792 353.743 312.367 353.743 312.367C353.743 312.367 346.614 291.279 344.832 275.834C344.008 268.482 344.147 261.055 345.245 253.739C345.508 251.88 345.866 250.035 346.317 248.212C346.317 248.212 375.354 229.939 386.317 242.568C387.372 243.804 388.209 245.21 388.792 246.727C389.394 248.225 389.863 249.773 390.194 251.354C393.606 268.115 376.02 274.646 376.02 274.646Z" fill="#4C4C78"/>
<path d="M375.129 144.554C383.495 144.554 390.277 137.772 390.277 129.406C390.277 121.041 383.495 114.259 375.129 114.259C366.763 114.259 359.98 121.041 359.98 129.406C359.98 137.772 366.763 144.554 375.129 144.554Z" fill="#FFB9B9"/>
<path d="M366.812 138.911C366.812 138.911 373.049 156.435 366.812 165.642C360.574 174.849 386.713 171.879 386.713 171.879L396.811 159.702C396.811 159.702 384.93 159.702 384.336 138.911C383.742 118.12 366.812 138.911 366.812 138.911Z" fill="#FFB9B9"/>
<path opacity="0.1" d="M396.811 249.697C394.658 250.442 392.444 250.996 390.194 251.354C386.496 251.924 382.132 251.945 379.584 249.697C378.072 248.363 374.347 248.2 369.871 248.627C360.444 249.53 347.683 253.047 345.245 253.739C345.508 251.88 345.866 250.035 346.317 248.212C346.317 248.212 375.354 229.939 386.318 242.568H392.653C394.008 243.54 395.132 244.797 395.947 246.251C396.494 248.616 396.811 249.697 396.811 249.697Z" fill="black"/>
<path opacity="0.1" d="M384.336 390.184L382.257 395.827L368.594 391.966L369.372 386.364C371.719 391.556 375.723 392.263 375.723 392.263C380.041 390.018 382.551 389.079 383.897 388.684C384.158 389.59 384.336 390.184 384.336 390.184Z" fill="black"/>
<path d="M385.227 388.699C385.227 388.699 383.148 388.699 375.722 392.56C375.722 392.56 370.673 391.669 368.594 384.541C368.594 384.541 362.356 395.233 358.198 395.827C354.04 396.421 346.02 397.015 351.366 404.143C356.713 411.272 388.197 408.005 388.197 408.005C388.197 408.005 389.089 390.778 385.227 388.699Z" fill="#CBCDDA"/>
<path d="M314.759 132.307C314.759 132.307 315.339 120.74 327.497 121.872C327.837 121.904 328.164 122.02 328.449 122.209C328.734 122.398 328.968 122.654 329.13 122.955C329.293 123.256 329.378 123.592 329.379 123.934C329.38 124.276 329.297 124.613 329.137 124.915L326.644 129.606L314.759 132.307Z" fill="#FFB9B9"/>
<path d="M384.931 163.266C384.931 163.266 370.376 160.89 366.515 157.92C366.515 157.92 363.545 163.563 358.198 160.593C352.852 157.623 340.377 157.92 340.377 157.92C340.377 157.92 329.981 152.276 327.902 139.505C327.902 139.505 325.822 131.783 326.417 129.703C326.417 129.703 318.694 121.684 314.833 132.377C316.318 139.802 317.506 139.208 317.209 145.148L321.961 158.217C321.961 158.217 322.258 162.672 330.872 168.612C339.486 174.552 349.287 183.76 349.287 183.76C349.287 183.76 344.09 186.581 346.02 199.502C348.38 215.293 344.832 237.816 344.832 237.816V252.37C344.832 252.37 374.535 243.756 379.584 248.212C384.634 252.667 396.812 248.212 396.812 248.212C396.812 248.212 395.326 243.162 393.247 230.985C391.168 218.807 393.544 206.927 393.544 206.927C393.544 206.927 401.267 186.433 404.831 178.117C408.396 169.8 402.158 158.514 395.92 154.356C389.683 150.197 387.36 152.694 387.36 152.694C387.36 152.694 398.297 160.593 384.931 163.266Z" fill="#CBCDDA"/>
<path opacity="0.1" d="M358.746 125.702C358.741 126.32 358.845 126.935 359.054 127.517C359.401 128.179 359.874 128.767 360.447 129.247C362.671 131.421 364.623 134.004 365.405 137.014C365.935 139.052 365.907 141.187 365.875 143.292C365.745 151.821 365.388 161.025 360.121 167.733C358.185 170.199 355.696 172.159 353.357 174.246C353.031 174.485 352.783 174.817 352.646 175.197C352.582 175.603 352.66 176.018 352.866 176.373C353.952 178.631 356.241 180.015 358.408 181.272C359.399 181.846 360.442 182.436 361.587 182.473C364.287 182.56 366.072 179.708 368.53 178.586C372.108 176.952 376.124 179.226 379.675 180.916C382.247 182.141 384.945 183.082 387.721 183.722C391.523 184.599 395.821 184.815 399.022 182.584C400.872 181.28 402.137 179.302 402.542 177.076C402.799 175.624 402.759 173.939 403.858 172.957C404.424 172.451 405.196 172.24 405.809 171.792C406.759 171.096 407.211 169.925 407.615 168.819L411.274 158.815C411.746 157.758 411.99 156.613 411.989 155.455C411.814 153.047 409.592 151.298 407.361 150.372C405.131 149.446 402.664 148.989 400.703 147.58C397.386 145.197 396.362 140.747 396.064 136.674C395.86 133.876 395.88 131.067 396.124 128.273C396.486 124.13 397.296 119.717 395.453 115.989C393.484 112.006 389.067 109.973 384.978 108.238C383.407 107.572 381.795 106.896 380.09 106.82C378.287 106.741 376.531 107.34 374.825 107.932C372.115 108.871 369.365 110.088 366.567 110.725C364.995 111.084 363.273 110.816 361.757 111.384C356.188 113.473 358.746 121.218 358.746 125.702Z" fill="black"/>
<path d="M358.746 125.108C358.741 125.726 358.845 126.341 359.054 126.923C359.401 127.585 359.874 128.173 360.447 128.653C362.671 130.827 364.623 133.41 365.405 136.42C365.935 138.458 365.907 140.593 365.875 142.698C365.745 151.227 365.388 160.431 360.121 167.139C358.185 169.605 355.696 171.565 353.357 173.652C353.031 173.891 352.783 174.223 352.646 174.603C352.582 175.009 352.66 175.424 352.866 175.779C353.952 178.037 356.241 179.421 358.408 180.678C359.399 181.252 360.442 181.842 361.587 181.879C364.287 181.966 366.072 179.114 368.53 177.992C372.108 176.358 376.124 178.632 379.675 180.322C382.247 181.547 384.945 182.488 387.721 183.128C391.523 184.005 395.821 184.221 399.022 181.99C400.872 180.686 402.137 178.708 402.542 176.482C402.799 175.03 402.759 173.345 403.858 172.363C404.424 171.857 405.196 171.646 405.809 171.198C406.759 170.502 407.211 169.331 407.615 168.225L411.274 158.221C411.746 157.164 411.99 156.019 411.989 154.861C411.814 152.453 409.592 150.704 407.361 149.778C405.131 148.852 402.664 148.395 400.703 146.986C397.386 144.603 396.362 140.153 396.064 136.08C395.86 133.282 395.88 130.473 396.124 127.679C396.486 123.536 397.296 119.123 395.453 115.395C393.484 111.412 389.067 109.379 384.978 107.644C383.407 106.978 381.795 106.302 380.09 106.227C378.287 106.147 376.531 106.746 374.825 107.338C372.115 108.277 369.365 109.494 366.567 110.132C364.995 110.49 363.273 110.222 361.757 110.79C356.188 112.879 358.746 120.624 358.746 125.108Z" fill="#B96B6B"/>
<path opacity="0.05" d="M346.769 206.164C346.769 206.164 349.139 205.59 361.02 203.808C372.901 202.026 393.693 206.184 393.693 206.184" fill="black"/>
<path d="M20.3007 255.003C22.0133 261.217 27.9632 264.998 27.9632 264.998C27.9632 264.998 31.1366 258.703 29.424 252.489C27.7114 246.275 21.7614 242.495 21.7614 242.495C21.7614 242.495 18.5881 248.789 20.3007 255.003Z" fill="#80E4AA"/>
</svg>
